<mxfile host="app.diagrams.net" agent="Mozilla/5.0 (Windows NT 10.0; Win64; x64) AppleWebKit/537.36 (KHTML, like Gecko) Chrome/128.0.0.0 Safari/537.36" version="24.7.13">
  <diagram id="C5RBs43oDa-KdzZeNtuy" name="Page-1">
    <mxGraphModel dx="1753" dy="528" grid="1" gridSize="10" guides="1" tooltips="1" connect="1" arrows="1" fold="1" page="1" pageScale="1" pageWidth="827" pageHeight="1169" math="0" shadow="0">
      <root>
        <mxCell id="WIyWlLk6GJQsqaUBKTNV-0" />
        <mxCell id="WIyWlLk6GJQsqaUBKTNV-1" parent="WIyWlLk6GJQsqaUBKTNV-0" />
        <mxCell id="zkfFHV4jXpPFQw0GAbJ--13" value="EmpresaTaxi" style="swimlane;fontStyle=0;align=center;verticalAlign=top;childLayout=stackLayout;horizontal=1;startSize=26;horizontalStack=0;resizeParent=1;resizeLast=0;collapsible=1;marginBottom=0;rounded=0;shadow=0;strokeWidth=1;" parent="WIyWlLk6GJQsqaUBKTNV-1" vertex="1">
          <mxGeometry x="580" y="542" width="180" height="86" as="geometry">
            <mxRectangle x="340" y="380" width="170" height="26" as="alternateBounds" />
          </mxGeometry>
        </mxCell>
        <mxCell id="zkfFHV4jXpPFQw0GAbJ--14" value="- Nombre: string" style="text;align=left;verticalAlign=top;spacingLeft=4;spacingRight=4;overflow=hidden;rotatable=0;points=[[0,0.5],[1,0.5]];portConstraint=eastwest;" parent="zkfFHV4jXpPFQw0GAbJ--13" vertex="1">
          <mxGeometry y="26" width="180" height="26" as="geometry" />
        </mxCell>
        <mxCell id="r7VxcP5SgxCXafzg01I7-47" value="- Conductores: Conductores[]" style="text;align=left;verticalAlign=top;spacingLeft=4;spacingRight=4;overflow=hidden;rotatable=0;points=[[0,0.5],[1,0.5]];portConstraint=eastwest;" vertex="1" parent="zkfFHV4jXpPFQw0GAbJ--13">
          <mxGeometry y="52" width="180" height="26" as="geometry" />
        </mxCell>
        <mxCell id="zkfFHV4jXpPFQw0GAbJ--15" value="" style="line;html=1;strokeWidth=1;align=left;verticalAlign=middle;spacingTop=-1;spacingLeft=3;spacingRight=3;rotatable=0;labelPosition=right;points=[];portConstraint=eastwest;" parent="zkfFHV4jXpPFQw0GAbJ--13" vertex="1">
          <mxGeometry y="78" width="180" height="8" as="geometry" />
        </mxCell>
        <mxCell id="r7VxcP5SgxCXafzg01I7-19" style="rounded=0;orthogonalLoop=1;jettySize=auto;html=1;endArrow=diamondThin;endFill=1;endSize=20;" edge="1" parent="WIyWlLk6GJQsqaUBKTNV-1" source="r7VxcP5SgxCXafzg01I7-3" target="zkfFHV4jXpPFQw0GAbJ--13">
          <mxGeometry relative="1" as="geometry" />
        </mxCell>
        <mxCell id="r7VxcP5SgxCXafzg01I7-26" value="1" style="edgeLabel;html=1;align=center;verticalAlign=middle;resizable=0;points=[];" vertex="1" connectable="0" parent="r7VxcP5SgxCXafzg01I7-19">
          <mxGeometry x="0.8185" y="1" relative="1" as="geometry">
            <mxPoint x="22" y="-20" as="offset" />
          </mxGeometry>
        </mxCell>
        <mxCell id="r7VxcP5SgxCXafzg01I7-27" value="1...*" style="edgeLabel;html=1;align=center;verticalAlign=middle;resizable=0;points=[];" vertex="1" connectable="0" parent="r7VxcP5SgxCXafzg01I7-19">
          <mxGeometry x="-0.7745" relative="1" as="geometry">
            <mxPoint x="20" as="offset" />
          </mxGeometry>
        </mxCell>
        <mxCell id="r7VxcP5SgxCXafzg01I7-0" value="Transporte" style="swimlane;fontStyle=0;align=center;verticalAlign=top;childLayout=stackLayout;horizontal=1;startSize=30;horizontalStack=0;resizeParent=1;resizeLast=0;collapsible=1;marginBottom=0;rounded=0;shadow=0;strokeWidth=1;" vertex="1" parent="WIyWlLk6GJQsqaUBKTNV-1">
          <mxGeometry x="440" y="20" width="190" height="90" as="geometry">
            <mxRectangle x="340" y="380" width="170" height="26" as="alternateBounds" />
          </mxGeometry>
        </mxCell>
        <mxCell id="r7VxcP5SgxCXafzg01I7-1" value="- TipoTransporte: TipoTransporte" style="text;align=left;verticalAlign=top;spacingLeft=4;spacingRight=4;overflow=hidden;rotatable=0;points=[[0,0.5],[1,0.5]];portConstraint=eastwest;" vertex="1" parent="r7VxcP5SgxCXafzg01I7-0">
          <mxGeometry y="30" width="190" height="26" as="geometry" />
        </mxCell>
        <mxCell id="r7VxcP5SgxCXafzg01I7-46" value="- Patente: string" style="text;align=left;verticalAlign=top;spacingLeft=4;spacingRight=4;overflow=hidden;rotatable=0;points=[[0,0.5],[1,0.5]];portConstraint=eastwest;" vertex="1" parent="r7VxcP5SgxCXafzg01I7-0">
          <mxGeometry y="56" width="190" height="26" as="geometry" />
        </mxCell>
        <mxCell id="r7VxcP5SgxCXafzg01I7-2" value="" style="line;html=1;strokeWidth=1;align=left;verticalAlign=middle;spacingTop=-1;spacingLeft=3;spacingRight=3;rotatable=0;labelPosition=right;points=[];portConstraint=eastwest;" vertex="1" parent="r7VxcP5SgxCXafzg01I7-0">
          <mxGeometry y="82" width="190" height="8" as="geometry" />
        </mxCell>
        <mxCell id="r7VxcP5SgxCXafzg01I7-18" style="rounded=0;orthogonalLoop=1;jettySize=auto;html=1;endArrow=none;endFill=0;" edge="1" parent="WIyWlLk6GJQsqaUBKTNV-1" source="r7VxcP5SgxCXafzg01I7-3" target="r7VxcP5SgxCXafzg01I7-0">
          <mxGeometry relative="1" as="geometry" />
        </mxCell>
        <mxCell id="r7VxcP5SgxCXafzg01I7-24" value="1" style="edgeLabel;html=1;align=center;verticalAlign=middle;resizable=0;points=[];" vertex="1" connectable="0" parent="r7VxcP5SgxCXafzg01I7-18">
          <mxGeometry x="0.745" y="1" relative="1" as="geometry">
            <mxPoint x="20" as="offset" />
          </mxGeometry>
        </mxCell>
        <mxCell id="r7VxcP5SgxCXafzg01I7-25" value="1" style="edgeLabel;html=1;align=center;verticalAlign=middle;resizable=0;points=[];" vertex="1" connectable="0" parent="r7VxcP5SgxCXafzg01I7-18">
          <mxGeometry x="-0.7092" relative="1" as="geometry">
            <mxPoint x="13" y="-19" as="offset" />
          </mxGeometry>
        </mxCell>
        <mxCell id="r7VxcP5SgxCXafzg01I7-3" value="Conductor" style="swimlane;fontStyle=0;align=center;verticalAlign=top;childLayout=stackLayout;horizontal=1;startSize=26;horizontalStack=0;resizeParent=1;resizeLast=0;collapsible=1;marginBottom=0;rounded=0;shadow=0;strokeWidth=1;" vertex="1" parent="WIyWlLk6GJQsqaUBKTNV-1">
          <mxGeometry x="610" y="220" width="174" height="164" as="geometry">
            <mxRectangle x="340" y="380" width="170" height="26" as="alternateBounds" />
          </mxGeometry>
        </mxCell>
        <mxCell id="r7VxcP5SgxCXafzg01I7-4" value="- Nombre: string" style="text;align=left;verticalAlign=top;spacingLeft=4;spacingRight=4;overflow=hidden;rotatable=0;points=[[0,0.5],[1,0.5]];portConstraint=eastwest;" vertex="1" parent="r7VxcP5SgxCXafzg01I7-3">
          <mxGeometry y="26" width="174" height="26" as="geometry" />
        </mxCell>
        <mxCell id="r7VxcP5SgxCXafzg01I7-36" value="- Licencia: string" style="text;align=left;verticalAlign=top;spacingLeft=4;spacingRight=4;overflow=hidden;rotatable=0;points=[[0,0.5],[1,0.5]];portConstraint=eastwest;" vertex="1" parent="r7VxcP5SgxCXafzg01I7-3">
          <mxGeometry y="52" width="174" height="26" as="geometry" />
        </mxCell>
        <mxCell id="r7VxcP5SgxCXafzg01I7-37" value="- Transporte: Transporte" style="text;align=left;verticalAlign=top;spacingLeft=4;spacingRight=4;overflow=hidden;rotatable=0;points=[[0,0.5],[1,0.5]];portConstraint=eastwest;" vertex="1" parent="r7VxcP5SgxCXafzg01I7-3">
          <mxGeometry y="78" width="174" height="26" as="geometry" />
        </mxCell>
        <mxCell id="r7VxcP5SgxCXafzg01I7-38" value="- IsDisponible: bool" style="text;align=left;verticalAlign=top;spacingLeft=4;spacingRight=4;overflow=hidden;rotatable=0;points=[[0,0.5],[1,0.5]];portConstraint=eastwest;" vertex="1" parent="r7VxcP5SgxCXafzg01I7-3">
          <mxGeometry y="104" width="174" height="26" as="geometry" />
        </mxCell>
        <mxCell id="r7VxcP5SgxCXafzg01I7-5" value="" style="line;html=1;strokeWidth=1;align=left;verticalAlign=middle;spacingTop=-1;spacingLeft=3;spacingRight=3;rotatable=0;labelPosition=right;points=[];portConstraint=eastwest;" vertex="1" parent="r7VxcP5SgxCXafzg01I7-3">
          <mxGeometry y="130" width="174" height="8" as="geometry" />
        </mxCell>
        <mxCell id="r7VxcP5SgxCXafzg01I7-44" value="- FinalizarViaje(Viaje): void" style="text;align=left;verticalAlign=top;spacingLeft=4;spacingRight=4;overflow=hidden;rotatable=0;points=[[0,0.5],[1,0.5]];portConstraint=eastwest;" vertex="1" parent="r7VxcP5SgxCXafzg01I7-3">
          <mxGeometry y="138" width="174" height="26" as="geometry" />
        </mxCell>
        <mxCell id="r7VxcP5SgxCXafzg01I7-16" style="rounded=0;orthogonalLoop=1;jettySize=auto;html=1;endArrow=none;endFill=0;" edge="1" parent="WIyWlLk6GJQsqaUBKTNV-1" source="r7VxcP5SgxCXafzg01I7-6" target="r7VxcP5SgxCXafzg01I7-9">
          <mxGeometry relative="1" as="geometry" />
        </mxCell>
        <mxCell id="r7VxcP5SgxCXafzg01I7-20" value="0...*" style="edgeLabel;html=1;align=center;verticalAlign=middle;resizable=0;points=[];" vertex="1" connectable="0" parent="r7VxcP5SgxCXafzg01I7-16">
          <mxGeometry x="0.818" y="-2" relative="1" as="geometry">
            <mxPoint x="20" y="4" as="offset" />
          </mxGeometry>
        </mxCell>
        <mxCell id="r7VxcP5SgxCXafzg01I7-21" value="1" style="edgeLabel;html=1;align=center;verticalAlign=middle;resizable=0;points=[];" vertex="1" connectable="0" parent="r7VxcP5SgxCXafzg01I7-16">
          <mxGeometry x="-0.786" y="1" relative="1" as="geometry">
            <mxPoint x="20" y="-9" as="offset" />
          </mxGeometry>
        </mxCell>
        <mxCell id="r7VxcP5SgxCXafzg01I7-6" value="Pasajero" style="swimlane;fontStyle=0;align=center;verticalAlign=top;childLayout=stackLayout;horizontal=1;startSize=26;horizontalStack=0;resizeParent=1;resizeLast=0;collapsible=1;marginBottom=0;rounded=0;shadow=0;strokeWidth=1;" vertex="1" parent="WIyWlLk6GJQsqaUBKTNV-1">
          <mxGeometry x="50" y="520" width="380" height="164" as="geometry">
            <mxRectangle x="340" y="380" width="170" height="26" as="alternateBounds" />
          </mxGeometry>
        </mxCell>
        <mxCell id="r7VxcP5SgxCXafzg01I7-7" value="- Nombre: string" style="text;align=left;verticalAlign=top;spacingLeft=4;spacingRight=4;overflow=hidden;rotatable=0;points=[[0,0.5],[1,0.5]];portConstraint=eastwest;" vertex="1" parent="r7VxcP5SgxCXafzg01I7-6">
          <mxGeometry y="26" width="380" height="26" as="geometry" />
        </mxCell>
        <mxCell id="r7VxcP5SgxCXafzg01I7-28" value="- Direccion: string" style="text;align=left;verticalAlign=top;spacingLeft=4;spacingRight=4;overflow=hidden;rotatable=0;points=[[0,0.5],[1,0.5]];portConstraint=eastwest;" vertex="1" parent="r7VxcP5SgxCXafzg01I7-6">
          <mxGeometry y="52" width="380" height="26" as="geometry" />
        </mxCell>
        <mxCell id="r7VxcP5SgxCXafzg01I7-29" value="- IsMiembro: bool" style="text;align=left;verticalAlign=top;spacingLeft=4;spacingRight=4;overflow=hidden;rotatable=0;points=[[0,0.5],[1,0.5]];portConstraint=eastwest;" vertex="1" parent="r7VxcP5SgxCXafzg01I7-6">
          <mxGeometry y="78" width="380" height="26" as="geometry" />
        </mxCell>
        <mxCell id="r7VxcP5SgxCXafzg01I7-8" value="" style="line;html=1;strokeWidth=1;align=left;verticalAlign=middle;spacingTop=-1;spacingLeft=3;spacingRight=3;rotatable=0;labelPosition=right;points=[];portConstraint=eastwest;" vertex="1" parent="r7VxcP5SgxCXafzg01I7-6">
          <mxGeometry y="104" width="380" height="8" as="geometry" />
        </mxCell>
        <mxCell id="r7VxcP5SgxCXafzg01I7-30" value="- PedirViaje(cantidadKilometros: int, tipoVehiculo: TipoVehiculo): Viaje" style="text;align=left;verticalAlign=top;spacingLeft=4;spacingRight=4;overflow=hidden;rotatable=0;points=[[0,0.5],[1,0.5]];portConstraint=eastwest;" vertex="1" parent="r7VxcP5SgxCXafzg01I7-6">
          <mxGeometry y="112" width="380" height="26" as="geometry" />
        </mxCell>
        <mxCell id="r7VxcP5SgxCXafzg01I7-48" value="- CambiarMiembro(): void" style="text;align=left;verticalAlign=top;spacingLeft=4;spacingRight=4;overflow=hidden;rotatable=0;points=[[0,0.5],[1,0.5]];portConstraint=eastwest;" vertex="1" parent="r7VxcP5SgxCXafzg01I7-6">
          <mxGeometry y="138" width="380" height="26" as="geometry" />
        </mxCell>
        <mxCell id="r7VxcP5SgxCXafzg01I7-17" style="rounded=0;orthogonalLoop=1;jettySize=auto;html=1;endArrow=none;endFill=0;dashed=1;dashPattern=12 12;startArrow=open;startFill=0;startSize=12;" edge="1" parent="WIyWlLk6GJQsqaUBKTNV-1" source="r7VxcP5SgxCXafzg01I7-9" target="r7VxcP5SgxCXafzg01I7-3">
          <mxGeometry relative="1" as="geometry" />
        </mxCell>
        <mxCell id="r7VxcP5SgxCXafzg01I7-22" value="1" style="edgeLabel;html=1;align=center;verticalAlign=middle;resizable=0;points=[];" vertex="1" connectable="0" parent="r7VxcP5SgxCXafzg01I7-17">
          <mxGeometry x="0.6727" y="-2" relative="1" as="geometry">
            <mxPoint x="4" y="-18" as="offset" />
          </mxGeometry>
        </mxCell>
        <mxCell id="r7VxcP5SgxCXafzg01I7-23" value="0...*" style="edgeLabel;html=1;align=center;verticalAlign=middle;resizable=0;points=[];" vertex="1" connectable="0" parent="r7VxcP5SgxCXafzg01I7-17">
          <mxGeometry x="-0.8002" y="1" relative="1" as="geometry">
            <mxPoint x="10" y="-30" as="offset" />
          </mxGeometry>
        </mxCell>
        <mxCell id="r7VxcP5SgxCXafzg01I7-50" style="rounded=0;orthogonalLoop=1;jettySize=auto;html=1;dashed=1;dashPattern=12 12;endArrow=open;endFill=0;endSize=11;" edge="1" parent="WIyWlLk6GJQsqaUBKTNV-1" source="r7VxcP5SgxCXafzg01I7-9" target="zkfFHV4jXpPFQw0GAbJ--13">
          <mxGeometry relative="1" as="geometry" />
        </mxCell>
        <mxCell id="r7VxcP5SgxCXafzg01I7-9" value="Viaje" style="swimlane;fontStyle=0;align=center;verticalAlign=top;childLayout=stackLayout;horizontal=1;startSize=26;horizontalStack=0;resizeParent=1;resizeLast=0;collapsible=1;marginBottom=0;rounded=0;shadow=0;strokeWidth=1;" vertex="1" parent="WIyWlLk6GJQsqaUBKTNV-1">
          <mxGeometry x="-10" y="140" width="480" height="268" as="geometry">
            <mxRectangle x="340" y="380" width="170" height="26" as="alternateBounds" />
          </mxGeometry>
        </mxCell>
        <mxCell id="r7VxcP5SgxCXafzg01I7-10" value="- TarifaBase: double" style="text;align=left;verticalAlign=top;spacingLeft=4;spacingRight=4;overflow=hidden;rotatable=0;points=[[0,0.5],[1,0.5]];portConstraint=eastwest;" vertex="1" parent="r7VxcP5SgxCXafzg01I7-9">
          <mxGeometry y="26" width="480" height="26" as="geometry" />
        </mxCell>
        <mxCell id="r7VxcP5SgxCXafzg01I7-31" value="- Pasajero: Pasajero" style="text;align=left;verticalAlign=top;spacingLeft=4;spacingRight=4;overflow=hidden;rotatable=0;points=[[0,0.5],[1,0.5]];portConstraint=eastwest;" vertex="1" parent="r7VxcP5SgxCXafzg01I7-9">
          <mxGeometry y="52" width="480" height="26" as="geometry" />
        </mxCell>
        <mxCell id="r7VxcP5SgxCXafzg01I7-32" value="- Conductor: Conductor" style="text;align=left;verticalAlign=top;spacingLeft=4;spacingRight=4;overflow=hidden;rotatable=0;points=[[0,0.5],[1,0.5]];portConstraint=eastwest;" vertex="1" parent="r7VxcP5SgxCXafzg01I7-9">
          <mxGeometry y="78" width="480" height="26" as="geometry" />
        </mxCell>
        <mxCell id="r7VxcP5SgxCXafzg01I7-33" value="- CantidadKilometros: int" style="text;align=left;verticalAlign=top;spacingLeft=4;spacingRight=4;overflow=hidden;rotatable=0;points=[[0,0.5],[1,0.5]];portConstraint=eastwest;" vertex="1" parent="r7VxcP5SgxCXafzg01I7-9">
          <mxGeometry y="104" width="480" height="26" as="geometry" />
        </mxCell>
        <mxCell id="r7VxcP5SgxCXafzg01I7-45" value="- IsCompletado: bool" style="text;align=left;verticalAlign=top;spacingLeft=4;spacingRight=4;overflow=hidden;rotatable=0;points=[[0,0.5],[1,0.5]];portConstraint=eastwest;" vertex="1" parent="r7VxcP5SgxCXafzg01I7-9">
          <mxGeometry y="130" width="480" height="26" as="geometry" />
        </mxCell>
        <mxCell id="r7VxcP5SgxCXafzg01I7-35" value="- / CostoTotal: double" style="text;align=left;verticalAlign=top;spacingLeft=4;spacingRight=4;overflow=hidden;rotatable=0;points=[[0,0.5],[1,0.5]];portConstraint=eastwest;" vertex="1" parent="r7VxcP5SgxCXafzg01I7-9">
          <mxGeometry y="156" width="480" height="26" as="geometry" />
        </mxCell>
        <mxCell id="r7VxcP5SgxCXafzg01I7-53" value="- EmpresaTaxi: EmpresaTaxi" style="text;align=left;verticalAlign=top;spacingLeft=4;spacingRight=4;overflow=hidden;rotatable=0;points=[[0,0.5],[1,0.5]];portConstraint=eastwest;" vertex="1" parent="r7VxcP5SgxCXafzg01I7-9">
          <mxGeometry y="182" width="480" height="26" as="geometry" />
        </mxCell>
        <mxCell id="r7VxcP5SgxCXafzg01I7-11" value="" style="line;html=1;strokeWidth=1;align=left;verticalAlign=middle;spacingTop=-1;spacingLeft=3;spacingRight=3;rotatable=0;labelPosition=right;points=[];portConstraint=eastwest;" vertex="1" parent="r7VxcP5SgxCXafzg01I7-9">
          <mxGeometry y="208" width="480" height="8" as="geometry" />
        </mxCell>
        <mxCell id="r7VxcP5SgxCXafzg01I7-34" value="- ReservarConductor(empresaTaxi: EmpresaTaxi, tipoVehiculo TipoVehiculo): Conductor" style="text;align=left;verticalAlign=top;spacingLeft=4;spacingRight=4;overflow=hidden;rotatable=0;points=[[0,0.5],[1,0.5]];portConstraint=eastwest;" vertex="1" parent="r7VxcP5SgxCXafzg01I7-9">
          <mxGeometry y="216" width="480" height="26" as="geometry" />
        </mxCell>
        <mxCell id="r7VxcP5SgxCXafzg01I7-49" value="- CambiarTarifaBase(nuevaTarifa: Double): void" style="text;align=left;verticalAlign=top;spacingLeft=4;spacingRight=4;overflow=hidden;rotatable=0;points=[[0,0.5],[1,0.5]];portConstraint=eastwest;" vertex="1" parent="r7VxcP5SgxCXafzg01I7-9">
          <mxGeometry y="242" width="480" height="26" as="geometry" />
        </mxCell>
        <mxCell id="r7VxcP5SgxCXafzg01I7-52" style="edgeStyle=orthogonalEdgeStyle;rounded=0;orthogonalLoop=1;jettySize=auto;html=1;exitX=1;exitY=0.5;exitDx=0;exitDy=0;" edge="1" parent="r7VxcP5SgxCXafzg01I7-9" source="r7VxcP5SgxCXafzg01I7-32" target="r7VxcP5SgxCXafzg01I7-32">
          <mxGeometry relative="1" as="geometry" />
        </mxCell>
        <mxCell id="r7VxcP5SgxCXafzg01I7-12" value="&lt;&lt;Enum&gt;&gt;&#xa;TipoVehiculo" style="swimlane;fontStyle=0;align=center;verticalAlign=top;childLayout=stackLayout;horizontal=1;startSize=40;horizontalStack=0;resizeParent=1;resizeLast=0;collapsible=1;marginBottom=0;rounded=0;shadow=0;strokeWidth=1;" vertex="1" parent="WIyWlLk6GJQsqaUBKTNV-1">
          <mxGeometry x="660" y="8" width="160" height="92" as="geometry">
            <mxRectangle x="340" y="380" width="170" height="26" as="alternateBounds" />
          </mxGeometry>
        </mxCell>
        <mxCell id="r7VxcP5SgxCXafzg01I7-13" value="Estandar" style="text;align=left;verticalAlign=top;spacingLeft=4;spacingRight=4;overflow=hidden;rotatable=0;points=[[0,0.5],[1,0.5]];portConstraint=eastwest;" vertex="1" parent="r7VxcP5SgxCXafzg01I7-12">
          <mxGeometry y="40" width="160" height="26" as="geometry" />
        </mxCell>
        <mxCell id="r7VxcP5SgxCXafzg01I7-15" value="Van" style="text;align=left;verticalAlign=top;spacingLeft=4;spacingRight=4;overflow=hidden;rotatable=0;points=[[0,0.5],[1,0.5]];portConstraint=eastwest;" vertex="1" parent="r7VxcP5SgxCXafzg01I7-12">
          <mxGeometry y="66" width="160" height="26" as="geometry" />
        </mxCell>
      </root>
    </mxGraphModel>
  </diagram>
</mxfile>
